<svg width="200" height="200" xmlns="http://www.w3.org/2000/svg">
    <defs>
        <pattern id="ClaySand"
            x="0" y="0" width="32" height="32"
            patternUnits="userSpaceOnUse">
           
            <path stroke="black" d="M4,4 H12 M20,4 H28"/>
            <path stroke="black" d="M2,12 H10 M16,12 H24"/>
            <path stroke="black" d="M8,20 H16 M24,20 H28"/>
            <path stroke="black" d="M5,28 H13 M21,20 H29"/>
            <circle cx="5" cy="7" r=".5"/><circle cx="3" cy="9" r=".5"/>
            <circle cx="12" cy="14" r=".5"/><circle cx="23" cy="8" r=".5"/>
            <circle cx="29" cy="23" r=".5"/><circle cx="19" cy="9" r=".5"/>
            <circle cx="14" cy="16" r=".5"/><circle cx="25" cy="9" r=".5"/>
            <circle cx="9" cy="24" r=".5"/><circle cx="18" cy="24" r=".5"/>
            <circle cx="11" cy="26" r=".5"/><circle cx="21" cy="27" r=".5"/>
            <circle cx="30" cy="30" r=".5"/><circle cx="16" cy="18" r=".5"/>
            <circle cx="11" cy="2" r=".5"/><circle cx="28" cy="2" r=".5"/>
            <circle cx="25" cy="1" r=".5"/><circle cx="16" cy="2" r=".5"/>
        </pattern>
    </defs>
    <rect x="0" y="0" width="200" height="200"
        style="stroke: #000000; fill: url(#ClaySand);" />
</svg>